<svg xmlns="http://www.w3.org/2000/svg" width="20" height="20" viewBox="0 0 20 20">
  <path id="callus" d="M8.438,1.562a1.563,1.563,0,0,0,2.93.757v.024H13.75a.783.783,0,0,1,.781.781v8.164a.78.78,0,0,0,.781.781h1.562A3.128,3.128,0,0,0,20,8.945V6.289a3.128,3.128,0,0,0-3.125-3.125h-.781v-.04A2.346,2.346,0,0,0,13.75.781H11.367V.806a1.562,1.562,0,0,0-2.93.756Zm7.656,4.375V4.727h.781a1.565,1.565,0,0,1,1.563,1.562V8.945a1.564,1.564,0,0,1-1.562,1.562h-.781ZM3.125,3.164A3.128,3.128,0,0,0,0,6.289V8.945a3.127,3.127,0,0,0,1.563,2.705,8.439,8.439,0,0,0,16.352,2.84.781.781,0,1,0-1.465-.543A6.876,6.876,0,0,1,3.144,12.07H4.687a.78.78,0,0,0,.781-.781V3.946a.78.78,0,0,0-.781-.781ZM1.563,8.945V6.289A1.564,1.564,0,0,1,3.125,4.727h.781v5.781H3.125A1.564,1.564,0,0,1,1.563,8.945Z" transform="translate(20 20) rotate(180)" fill="#fff"/>
</svg>
