<svg xmlns="http://www.w3.org/2000/svg" width="21" height="21" viewBox="0 0 21 21">
  <g id="shareappmenu" transform="translate(-299 -214)">
    <rect id="bg" width="21" height="21" transform="translate(299 214)" fill="rgba(255,96,96,0)"/>
    <path id="path" d="M19.722,5.156v7.56a3.357,3.357,0,0,1-1.271,2.5l-4.685,3.392a2.5,2.5,0,0,1-2.81,0L6.271,15.22A3.367,3.367,0,0,1,5,12.716V5.156A2.462,2.462,0,0,1,6.633,2.886,12.07,12.07,0,0,1,8.222,2.44a19.667,19.667,0,0,1,8.278,0,12.048,12.048,0,0,1,1.593.447A2.48,2.48,0,0,1,19.722,5.156Zm-13.172,0v7.56a1.852,1.852,0,0,0,.63,1.249l4.685,3.393a.957.957,0,0,0,.993,0l4.685-3.393a1.837,1.837,0,0,0,.63-1.249V5.156a.939.939,0,0,0-.568-.8l-.048-.017q-.169-.062-.342-.114-.518-.158-1.048-.274a18.119,18.119,0,0,0-7.61,0q-.529.115-1.048.274c-.174.054-.29.094-.342.114l-.058.019a.924.924,0,0,0-.558.795Zm3.26,4.432L11.2,10.977l3.714-3.714a.775.775,0,1,1,1.1,1.1l-4.262,4.262a.775.775,0,0,1-1.1,0L8.714,10.684a.775.775,0,1,1,1.1-1.1Z" transform="translate(297.139 214.082)" fill="#fff"/>
  </g>
</svg>
